<svg xmlns="http://www.w3.org/2000/svg" width="60" height="59.999" viewBox="0 0 60 59.999">
  <g id="Grupo_35" data-name="Grupo 35" transform="translate(-340.917 -994.449)">
    <g id="Layer_1" data-name="Layer 1">
      <path id="Trazado_63" data-name="Trazado 63" d="M380.35,1016.518l.324-3.106-2.853-1.269-1.269-2.853-3.106.324-2.529-1.832-2.528,1.832-3.107-.324-1.269,2.853-2.853,1.269.324,3.106-1.832,2.529,1.833,2.528-.325,3.107,2.854,1.269.658,1.481v13.683l6.245-3.9,6.245,3.9v-13.683l.659-1.481,2.853-1.269-.324-3.107,1.832-2.528Zm-9.433,19.057-4.857,3.036v-9.888l2.329-.243,2.528,1.832,2.529-1.833,2.328.244v9.887Zm8.273-11.752-2.42,1.077-1.077,2.419-2.632-.275-2.144,1.554-2.144-1.554-2.632.275-1.076-2.419-2.42-1.077.275-2.632-1.554-2.144,1.554-2.144-.275-2.632,2.42-1.077,1.076-2.42,2.632.275,2.144-1.553,2.144,1.553,2.632-.275,1.077,2.42,2.42,1.077-.275,2.632,1.553,2.144-1.553,2.144Z" fill="#818b8c"/>
      <path id="Trazado_64" data-name="Trazado 64" d="M370.917,1012.108a6.939,6.939,0,1,0,6.939,6.939A6.946,6.946,0,0,0,370.917,1012.108Zm0,12.49a5.551,5.551,0,1,1,5.551-5.551A5.558,5.558,0,0,1,370.917,1024.6Z" fill="#818b8c"/>
    </g>
    <path id="Trazado_65" data-name="Trazado 65" d="M370.917,994.449a30,30,0,1,1-30,30A30,30,0,0,1,370.917,994.449ZM352.1,1043.261a26.608,26.608,0,1,0-7.791-18.813,26.527,26.527,0,0,0,7.791,18.813" fill="#818b8c"/>
  </g>
</svg>
