<svg xmlns="http://www.w3.org/2000/svg" width="60" height="60" viewBox="0 0 60 60">
  <g id="Grupo_623" data-name="Grupo 623" transform="translate(-650.214 -345.857)">
    <path id="Trazado_77" data-name="Trazado 77" d="M680.214,345.857a30,30,0,1,1-30,30A30,30,0,0,1,680.214,345.857ZM661.4,394.67a26.609,26.609,0,1,0-7.791-18.813A26.526,26.526,0,0,0,661.4,394.67" fill="#818b8c"/>
    <path id="Trazado_78" data-name="Trazado 78" d="M674.85,392.445a.6.6,0,0,1-.459-.323l-3.474-6.979-7.011-3.441a.768.768,0,0,1-.289-.488.565.565,0,0,1,.172-.495l.126-.124a.6.6,0,0,1,.42-.163.6.6,0,0,1,.133.014l5.822.911,8.224-8.224-12.833-7.421a.694.694,0,0,1-.3-.475.564.564,0,0,1,.173-.495l.189-.188a.677.677,0,0,1,.463-.18l18.257,2.8,5.057-5.058c.942-.941,4.505-2.858,6.415-2.858a1.016,1.016,0,0,1,.686.176c.854.853-1.3,5.719-2.684,7.1l-5.088,5.088,2.795,18.154a.589.589,0,0,1-.17.566l-.19.189a.638.638,0,0,1-.427.178.724.724,0,0,1-.547-.308L682.9,377.581l-8.227,8.226.936,5.748a.63.63,0,0,1-.14.591l-.127.127a.635.635,0,0,1-.425.178.457.457,0,0,1-.067-.006" fill="#818b8c"/>
  </g>
</svg>
